<svg xmlns="http://www.w3.org/2000/svg" xmlns:xlink="http://www.w3.org/1999/xlink" width="100" zoomAndPan="magnify" viewBox="0 0 37.5 30.000001" height="60" preserveAspectRatio="xMidYMid meet" version="1.0"><defs><g/><clipPath id="818d272b92"><path d="M 0.363281 7 L 13 7 L 13 21 L 0.363281 21 Z M 0.363281 7 " clip-rule="nonzero"/></clipPath></defs><g clip-path="url(#818d272b92)"><g fill="#1c9aea" fill-opacity="1"><g transform="translate(0.362903, 20.041699)"><g><path d="M 11.769531 -12.925781 L 9.6875 -12.925781 C 9.15625 -12.925781 9.019531 -12.769531 8.859375 -12.296875 L 6.207031 -4.164062 L 3.535156 -12.296875 C 3.378906 -12.769531 3.242188 -12.925781 2.730469 -12.925781 L 0.550781 -12.925781 C 0.175781 -12.925781 0.0976562 -12.613281 0.195312 -12.359375 L 4.421875 -0.589844 C 4.65625 -0.078125 4.792969 0 5.226562 0 L 7.113281 0 C 7.542969 0 7.683594 -0.078125 7.917969 -0.589844 L 12.121094 -12.359375 C 12.21875 -12.613281 12.140625 -12.925781 11.769531 -12.925781 Z M 11.769531 -12.925781 "/></g></g></g></g><g fill="#1c9aea" fill-opacity="1"><g transform="translate(12.858077, 20.041699)"><g><path d="M 13.046875 -12.945312 L 11.160156 -12.945312 C 10.511719 -12.945312 10.414062 -12.515625 10.273438 -12.277344 L 7.5625 -7.445312 L 4.871094 -12.277344 C 4.714844 -12.515625 4.636719 -12.945312 3.96875 -12.945312 L 2.023438 -12.945312 C 1.570312 -12.945312 1.453125 -12.730469 1.453125 -12.378906 L 1.453125 -0.570312 C 1.453125 -0.117188 1.671875 0 2.023438 0 L 3.96875 0 C 4.320312 0 4.539062 -0.117188 4.539062 -0.570312 L 4.539062 -7.230469 L 6.523438 -3.792969 C 6.621094 -3.632812 6.777344 -3.378906 7.074219 -3.378906 L 8.054688 -3.378906 C 8.351562 -3.378906 8.527344 -3.632812 8.625 -3.792969 L 10.589844 -7.230469 L 10.589844 -0.570312 C 10.589844 -0.117188 10.804688 0 11.160156 0 L 13.046875 0 C 13.398438 0 13.613281 -0.117188 13.613281 -0.570312 L 13.613281 -12.378906 C 13.613281 -12.730469 13.496094 -12.945312 13.046875 -12.945312 Z M 13.046875 -12.945312 "/></g></g></g><g fill="#1c9aea" fill-opacity="1"><g transform="translate(27.926948, 20.041699)"><g><path d="M 7.074219 -2.691406 L 5.835938 -2.691406 L 5.835938 -10.195312 L 7.015625 -10.195312 C 7.464844 -10.195312 7.582031 -10.414062 7.582031 -10.765625 L 7.582031 -12.359375 C 7.582031 -12.710938 7.464844 -12.925781 7.015625 -12.925781 L 1.550781 -12.925781 C 1.101562 -12.925781 0.980469 -12.710938 0.980469 -12.359375 L 0.980469 -10.765625 C 0.980469 -10.414062 1.101562 -10.195312 1.550781 -10.195312 L 2.75 -10.195312 L 2.75 -2.691406 L 1.511719 -2.691406 C 1.0625 -2.691406 0.941406 -2.476562 0.941406 -2.121094 L 0.941406 -0.570312 C 0.941406 -0.214844 1.0625 0 1.511719 0 L 7.074219 0 C 7.523438 0 7.640625 -0.214844 7.640625 -0.570312 L 7.640625 -2.121094 C 7.640625 -2.476562 7.523438 -2.691406 7.074219 -2.691406 Z M 7.074219 -2.691406 "/></g></g></g></svg>